name C:\Users\u0101727\Documents\MyRepositories\paper-ad\predictivesimulations_2d/Results/PredSim_2D/IK_c31.mot
datacolumns 11
datarows 51
range 0.63766855 1.12075078
endheader
time	pelvis_tilt	pelvis_tx	pelvis_ty	hip_flexion_l	hip_flexion_r	knee_angle_l	knee_angle_r	ankle_angle_l	ankle_angle_r	lumbar_extension	
          0.63766855	        -15.98973093	          0.86163459	          0.89861200	         26.60445783	         13.10289563	         -9.85143513	        -41.36913650	          7.50146621	          0.47387609	         11.31397020	
          0.64733019	        -16.00752844	          0.87363544	          0.90011360	         25.67779517	         14.43682526	         -9.58967174	        -42.25287875	          7.60739345	          1.40896656	         11.27255163	
          0.65699183	        -16.02338766	          0.88557108	          0.90136442	         24.73815866	         15.79944475	         -9.30489675	        -43.02370342	          7.76322212	          2.41891740	         11.22612090	
          0.66665348	        -16.03741183	          0.89744991	          0.90236964	         23.79007694	         17.18350792	         -9.00617564	        -43.67714399	          7.96406639	          3.48631320	         11.17517011	
          0.67631512	        -16.04986242	          0.90927846	          0.90314255	         22.83763891	         18.58281005	         -8.70039540	        -44.20486031	          8.20440494	          4.59373417	         11.12012607	
          0.68597677	        -16.06104320	          0.92106426	          0.90370090	         21.88434752	         19.98990872	         -8.39435366	        -44.59915892	          8.47696440	          5.72360647	         11.06160014	
          0.69563841	        -16.07120932	          0.93281414	          0.90406466	         20.93443696	         21.39821673	         -8.09356567	        -44.85156977	          8.77380461	          6.85837906	         11.00012002	
          0.70530006	        -16.08018526	          0.94454287	          0.90425236	         19.99354892	         22.79331299	         -7.81492573	        -44.95883988	          9.08507803	          7.98016076	         10.93695464	
          0.71496170	        -16.08749913	          0.95625253	          0.90428485	         19.06619986	         24.17946562	         -7.56770537	        -44.90700306	          9.40247931	          9.07230046	         10.87162169	
          0.72462335	        -16.09305805	          0.96794656	          0.90417915	         18.15199497	         25.56165489	         -7.34480051	        -44.68141829	          9.71973831	         10.11859964	         10.80413741	
          0.73428499	        -16.09695803	          0.97964405	          0.90394300	         17.25008644	         26.92452981	         -7.14774494	        -44.28936055	         10.02849045	         11.10243790	         10.73647211	
          0.74394664	        -16.09944649	          0.99135665	          0.90358506	         16.36251156	         28.25762310	         -6.98015533	        -43.73326497	         10.32047336	         12.00917081	         10.66959158	
          0.75360828	        -16.10080982	          1.00309592	          0.90311309	         15.49042051	         29.55082706	         -6.84462578	        -43.01941267	         10.58887777	         12.82655883	         10.60444995	
          0.76326993	        -16.10128988	          1.01487116	          0.90253509	         14.63452245	         30.79677555	         -6.74256676	        -42.15584135	         10.82858394	         13.54597761	         10.54169151	
          0.77293157	        -16.10125534	          1.02669009	          0.90185972	         13.79531049	         31.98899183	         -6.67443533	        -41.14725314	         11.03617429	         14.16320598	         10.48187917	
          0.78259322	        -16.10107349	          1.03855874	          0.90109540	         12.97283717	         33.12310409	         -6.64006991	        -40.00085227	         11.21040681	         14.67853669	         10.42536671	
          0.79225486	        -16.10114147	          1.05048185	          0.90025065	         12.16732415	         34.19560547	         -6.63994869	        -38.72140625	         11.35205118	         15.09626286	         10.37237709	
          0.80191650	        -16.10186497	          1.06246250	          0.89933322	         11.37865481	         35.20514770	         -6.67338603	        -37.31401491	         11.46408415	         15.42350444	         10.32292124	
          0.81157815	        -16.10368418	          1.07450522	          0.89834965	         10.60614986	         36.14913807	         -6.73925888	        -35.78559963	         11.55072828	         15.66868449	         10.27720233	
          0.82123979	        -16.10695766	          1.08661534	          0.89730472	          9.84944054	         37.02449393	         -6.83759095	        -34.14598647	         11.61670668	         15.84048693	         10.23544342	
          0.83090144	        -16.11207941	          1.09879983	          0.89620207	          9.10862042	         37.82547949	         -6.96944727	        -32.39913764	         11.66498503	         15.94734830	         10.19812475	
          0.84056308	        -16.11934822	          1.11106678	          0.89504414	          8.38376521	         38.54645396	         -7.13541672	        -30.55197990	         11.69569683	         15.99738010	         10.16582375	
          0.85022473	        -16.12857354	          1.12342710	          0.89383429	          7.67573667	         39.18317048	         -7.33914232	        -28.63593805	         11.70828857	         15.99802229	         10.13905762	
          0.85988637	        -16.13944297	          1.13589640	          0.89258229	          6.98626386	         39.72714472	         -7.58684857	        -26.68946633	         11.69977612	         15.95576971	         10.11886528	
          0.86954802	        -16.15171918	          1.14849305	          0.89130573	          6.31788240	         40.16691742	         -7.88544889	        -24.74237225	         11.66129742	         15.87614242	         10.10672660	
          0.87920966	        -16.16484846	          1.16123544	          0.89002726	          5.67461066	         40.49524841	         -8.24402491	        -22.81983792	         11.57894935	         15.76354406	         10.10385901	
          0.88887131	        -16.17775936	          1.17413982	          0.88876898	          5.06095043	         40.71446348	         -8.67249106	        -20.94953548	         11.43819913	         15.62099356	         10.11077633	
          0.89853295	        -16.18911606	          1.18722098	          0.88754941	          4.48224593	         40.83160728	         -9.18221692	        -19.15488504	         11.22585711	         15.45004051	         10.12759319	
          0.90819460	        -16.19780408	          1.20049459	          0.88638425	          3.94429473	         40.85106539	         -9.78452405	        -17.44407767	         10.92811983	         15.25104196	         10.15472476	
          0.91785624	        -16.20278275	          1.21397622	          0.88528537	          3.45236916	         40.77813986	        -10.48922953	        -15.82711424	         10.53123531	         15.02309569	         10.19257200	
          0.92751788	        -16.20289666	          1.22768051	          0.88425986	          3.01169602	         40.62015229	        -11.30607273	        -14.32241175	         10.02303216	         14.76403720	         10.24130941	
          0.93717953	        -16.19702497	          1.24162213	          0.88330969	          2.62824441	         40.38174513	        -12.24578246	        -12.94467336	          9.39153717	         14.47104713	         10.30127569	
          0.94684117	        -16.18391625	          1.25581491	          0.88243065	          2.30877786	         40.06655494	        -13.32027185	        -11.71102522	          8.62486995	         14.14064424	         10.37281035	
          0.95650282	        -16.16200488	          1.27027033	          0.88161090	          2.05964146	         39.68108520	        -14.54082839	        -10.65382729	          7.71478855	         13.76816039	         10.45597109	
          0.96616446	        -16.12971818	          1.28499874	          0.88082992	          1.88686987	         39.22741444	        -15.91927884	         -9.80897745	          6.66096192	         13.34837691	         10.55114339	
          0.97582611	        -16.08579140	          1.30000719	          0.88005277	          1.79446677	         38.70006889	        -17.47047762	         -9.20890055	          5.48696185	         12.87589624	         10.65922919	
          0.98548775	        -16.02994619	          1.31528683	          0.87922663	          1.78544904	         38.08502546	        -19.20201469	         -8.89791061	          4.20953639	         12.34622495	         10.78101968	
          0.99514940	        -15.96495017	          1.33081479	          0.87836634	          1.86790193	         37.31733204	        -21.10514950	         -8.99252470	          2.78626249	         11.75630129	         10.92005137	
          1.00481104	        -15.89953348	          1.34639998	          0.87761749	          2.04862108	         36.43815189	        -23.16264338	         -9.31808391	          1.28970809	         11.14464800	         11.06686352	
          1.01447269	        -15.84508394	          1.36168497	          0.87724291	          2.36271177	         35.56967099	        -25.28211555	         -9.61620909	         -0.02116534	         10.54747766	         11.19702196	
          1.02413433	        -15.81095722	          1.37640507	          0.87751480	          2.83879756	         34.74711050	        -27.30570377	         -9.89133793	         -1.03147698	          9.96756893	         11.29558767	
          1.03379598	        -15.80006073	          1.39049878	          0.87857736	          3.46579243	         33.96948327	        -29.16472614	        -10.13200375	         -1.78211056	          9.42279102	         11.36181042	
          1.04345762	        -15.80733469	          1.40405917	          0.88036552	          4.22420349	         33.21634137	        -30.88363339	        -10.32484801	         -2.28585497	          8.93183047	         11.40208744	
          1.05311926	        -15.82564023	          1.41722121	          0.88264505	          5.08958869	         32.46640686	        -32.49393724	        -10.46301112	         -2.55867209	          8.50663838	         11.42378199	
          1.06278091	        -15.84936026	          1.43009801	          0.88517086	          6.04426431	         31.70302027	        -34.01517717	        -10.54129415	         -2.62001802	          8.15347702	         11.43235810	
          1.07244255	        -15.87497937	          1.44276497	          0.88775807	          7.07597311	         30.91728194	        -35.45603227	        -10.55901660	         -2.48771178	          7.87379378	         11.43092384	
          1.08210420	        -15.90058184	          1.45526896	          0.89028463	          8.17527283	         30.10559750	        -36.81737372	        -10.51817759	         -2.17937422	          7.66625000	         11.42113763	
          1.09176584	        -15.92523147	          1.46764006	          0.89267350	          9.33393642	         29.26699952	        -38.09535333	        -10.42191166	         -1.71237649	          7.52856689	         11.40401243	
          1.10142749	        -15.94846101	          1.47989837	          0.89487636	         10.54536766	         28.40236187	        -39.28439689	        -10.27469694	         -1.10352573	          7.45777057	         11.38015044	
          1.11108913	        -15.97001478	          1.49205886	          0.89686245	         11.80361989	         27.51385591	        -40.37780675	        -10.08235843	         -0.36925424	          7.45008604	         11.34999762	
          1.12075078	        -15.98973093	          1.50413396	          0.89861200	         13.10289563	         26.60445783	        -41.36913650	         -9.85143513	          0.47387609	          7.50146621	         11.31397020	
